<?xml version="1.0" encoding="utf-8"?>
<!-- Generator: Adobe Illustrator 22.0.1, SVG Export Plug-In . SVG Version: 6.00 Build 0)  -->
<svg version="1.1" id="Layer_2" xmlns="http://www.w3.org/2000/svg" xmlns:xlink="http://www.w3.org/1999/xlink" x="0px" y="0px"
	 viewBox="0 0 206.4 42" style="enable-background:new 0 0 206.4 42;" xml:space="preserve">
<style type="text/css">
	.st0{fill:#FFFFFF;}
	.st1{filter:url(#Adobe_OpacityMaskFilter);}
	.st2{mask:url(#mask-2_1_);fill:#FFFFFF;}
</style>
<path id="Fill-6_1_" class="st0" d="M68.3,22.2l2.6-7.2h0.1l2.5,7.2H68.3z M69.4,12.1l-6.5,16.8h3l1.6-4.4h6.7l1.6,4.4H79l-6.5-16.8
	H69.4z"/>
<polygon id="Fill-8_1_" class="st0" points="195.2,21.2 200.4,16.8 198.4,16.8 191.7,22.6 191.7,12.1 190.2,12.1 190.2,28.9 
	191.7,28.9 191.7,24.3 194.1,22.3 198.9,28.9 200.8,28.9 "/>
<path id="Fill-10_1_" class="st0" d="M63.4,12.1h-3v11.5c0,2.1-0.4,3.2-2.4,3.2c-1.8,0-2.3-1.1-2.3-3V23h-3v0.9c0,3.1,1.5,5.4,5,5.4
	c4.8,0,5.6-2.9,5.6-5.8V12.1z"/>
<path id="Fill-16_1_" class="st0" d="M184.4,19.6L184.4,19.6l0-2.8h-1.4v12.1h1.5v-6.5c0-2.5,1.8-4.5,4.5-4.3v-1.5
	C186.8,16.5,185.1,17.6,184.4,19.6"/>
<path id="Fill-18_1_" class="st0" d="M141.1,17.6c2.4,0,3.8,2.1,3.9,4.3h-7.9C137.4,19.8,138.7,17.6,141.1,17.6 M141.1,16.4
	c-3.9,0-5.5,3.2-5.5,6.4c0,3.5,1.6,6.4,5.5,6.4c3.1,0,4.7-1.6,5.3-4.3H145c-0.5,1.9-1.7,3.1-3.8,3.1c-2.8,0-4-2.6-4-4.8h9.4
	C146.6,19.8,145.1,16.4,141.1,16.4"/>
<path id="Fill-20_1_" class="st0" d="M150.2,13.1h-1.5v3.6h-2.1V18h2.1v8.3c0,2.1,0.7,2.7,2.6,2.7c0.5,0,0.9,0,1.3,0v-1.3
	c-0.4,0-0.9,0.1-1.3,0.1c-1.1-0.1-1.2-0.6-1.2-1.6V18h2.5v-1.2h-2.5V13.1z"/>
<path id="Fill-22_1_" class="st0" d="M176.1,28c-2.8,0-4.3-2.6-4.3-5.2c0-2.6,1.4-5.2,4.3-5.2c2.8,0,4.3,2.6,4.3,5.2
	C180.4,25.4,178.9,28,176.1,28 M176.1,16.4c-3.7,0-5.8,2.9-5.8,6.4c0,3.5,2.1,6.4,5.8,6.4s5.8-2.9,5.8-6.4
	C181.9,19.3,179.8,16.4,176.1,16.4"/>
<polygon id="Fill-24_1_" class="st0" points="88.7,25.2 88.7,25.2 84,12.1 79.9,12.1 79.9,28.9 82.7,28.9 82.7,15.9 82.7,15.9 
	87.4,28.9 89.9,28.9 94.5,15.9 94.6,15.9 94.6,28.9 97.4,28.9 97.4,12.1 93.3,12.1 "/>
<polygon id="Fill-26_1_" class="st0" points="132.7,26.3 132.7,26.3 122.9,12.1 121.1,12.1 121.1,28.9 122.7,28.9 122.7,14.7 
	122.7,14.7 132.5,28.9 134.3,28.9 134.3,12.1 132.7,12.1 "/>
<polygon id="Fill-28_1_" class="st0" points="168.9,16.8 165.8,27.1 165.8,27.1 162.8,16.8 161.1,16.8 158.1,27.1 158.1,27.1 
	155,16.8 153.4,16.8 157.3,28.9 158.9,28.9 161.9,18.7 162,18.7 165,28.9 166.6,28.9 170.5,16.8 "/>
<path id="Fill-30_1_" class="st0" d="M103.7,22.2l2.6-7.2h0.1l2.5,7.2H103.7z M104.8,12.1l-6.5,16.8h3l1.6-4.4h6.7l1.6,4.4h3.2
	l-6.5-16.8H104.8z"/>
<g>
	<path class="st0" d="M203.2,14.9h-0.7v1.9h-0.4v-1.9h-0.7v-0.3h1.7L203.2,14.9L203.2,14.9z M206,16.8h-0.4v-1.8l0,0l-0.7,1.8h-0.2
		l-0.7-1.8l0,0v1.8h-0.4v-2.2h0.5l0.6,1.6l0.6-1.6h0.5V16.8z"/>
</g>
<title>logo / signature reversed</title>
<desc>Created with Sketch.</desc>
<g id="Group-3">
	<g id="Clip-2">
	</g>
	<defs>
		<filter id="Adobe_OpacityMaskFilter" filterUnits="userSpaceOnUse" x="2.7" y="0" width="42.3" height="42">
			<feColorMatrix  type="matrix" values="1 0 0 0 0  0 1 0 0 0  0 0 1 0 0  0 0 0 1 0"/>
		</filter>
	</defs>
	<mask maskUnits="userSpaceOnUse" x="2.7" y="0" width="42.3" height="42" id="mask-2_1_">
		<g class="st1">
			<polygon id="path-1_1_" class="st0" points="45,42 2.7,42 2.7,0 45,0 			"/>
		</g>
	</mask>
	<path id="Fill-1" class="st2" d="M35.2,29.4h-5.1l-4.1-6.7l0,6.7l-0.9,0l0-10.1l5.5,9.2h3.6V13.3l-2.9,0V24l-6.4-10.7h-2.7v10.1
		c0,4-2.1,6.2-6.1,6.2c-4.5,0-6.1-3.1-6.1-5.7V22h4.3v1.2c0,1.7,0.5,2.3,1.7,2.3c1.4,0,1.5-0.9,1.5-2.3V12.4h0.9v10.9
		c0,1.2,0,3.2-2.4,3.2c-2.4,0-2.6-1.9-2.6-3.3V23H11v1c0,3.5,2.6,4.8,5.1,4.8c3.5,0,5.2-1.7,5.2-5.2V12.4h4.2l4.9,8.2v-8.2l4.8,0
		V29.4z M23.8,0C12.2,0,2.7,9.4,2.7,21c0,11.6,9.5,21,21.1,21C35.5,42,45,32.6,45,21C45,9.4,35.5,0,23.8,0L23.8,0z"/>
</g>
</svg>
